<?xml version="1.0"?>
<svg xmlns="http://www.w3.org/2000/svg" xmlns:xlink="http://www.w3.org/1999/xlink" version="1.1" id="Capa_1" x="0px" y="0px" width="512px" height="512px" viewBox="0 0 512 512" style="enable-background:new 0 0 512 512;" xml:space="preserve" class=""><g><g>
	<path d="M480,128c17.674,0,32-14.327,32-32V32h-64V0H32C14.4,0,0,14.399,0,32v448c0,17.6,14.398,32,32,32h416V384h32   c17.674,0,32-14.327,32-32v-64h-64v-32h32c17.674,0,32-14.327,32-32v-64h-64v-32H480z M288,128.165   c35.256,0,63.836,28.58,63.836,63.835s-28.58,63.835-63.836,63.835c-35.255,0-63.835-28.58-63.835-63.835   S252.745,128.165,288,128.165z M128,480H96V32h32V480z M384,384H192v-32c0-35.348,28.654-64,64-64l0,0h64c35.348,0,64,28.652,64,64   V384z" data-original="#000000" class="active-path" data-old_color="#0eb10f" fill="#0eb10f"/>
</g></g> </svg>
