<?xml version="1.0"?>
<svg xmlns="http://www.w3.org/2000/svg" height="512px" viewBox="0 -8 480 480" width="512px" class=""><g><path d="m440 152c-22.082031.027344-39.972656 17.917969-40 40v8h-32c-17.671875 0-32 14.328125-32 32h-24.800781c-3.828125-18.609375-20.199219-31.976562-39.199219-32h-96c-19 .023438-35.371094 13.390625-39.199219 32h-16.800781c-13.253906 0-24 10.746094-24 24v8h-16v-24c0-22.089844-17.910156-40-40-40s-40 17.910156-40 40v80c0 13.253906 10.746094 24 24 24h48v48.207031c-13.773438 10.332031-19.390625 28.316407-13.949219 44.648438 5.445313 16.335937 20.730469 27.351562 37.949219 27.351562s32.503906-11.015625 37.949219-27.351562c5.441406-16.332031-.175781-34.316407-13.949219-44.648438v-48.207031h24v8c0 13.253906 10.746094 24 24 24h152c13.253906 0 24-10.746094 24-24v-8h24v48.207031c-13.773438 10.332031-19.390625 28.316407-13.949219 44.648438 5.445313 16.335937 20.730469 27.351562 37.949219 27.351562s32.503906-11.015625 37.949219-27.351562c5.441406-16.332031-.175781-34.316407-13.949219-44.648438v-48.207031h40c13.253906 0 24-10.746094 24-24v-128c-.027344-22.082031-17.917969-39.972656-40-40zm-88 80c0-8.835938 7.164062-16 16-16h32v48h-48zm-16 32h-24v-16h24zm-184 16h144v16h-144zm0-16v-16h144v16zm24-48h96c10.132812.042969 19.148438 6.445312 22.527344 16h-141.054688c3.378906-9.554688 12.394532-15.957031 22.527344-16zm-64 40c0-4.417969 3.582031-8 8-8h16v16h-24zm-16 192c-10.472656.015625-19.742188-6.765625-22.890625-16.753906-3.148437-9.988282.550781-20.859375 9.136719-26.855469l1.777344-1.039063c1.777343-1.03125 3.679687-1.835937 5.65625-2.398437.128906-.042969.257812-.089844.390624-.121094 3.882813-1.054687 7.976563-1.054687 11.859376 0 .132812 0 .261718.078125.390624.121094 1.976563.5625 3.878907 1.367187 5.65625 2.398437l1.777344 1.039063c8.585938 5.996094 12.285156 16.867187 9.136719 26.855469-3.148437 9.988281-12.417969 16.769531-22.890625 16.753906zm8-63.199219c-5.277344-1.078125-10.722656-1.078125-16 0v-40.800781h16zm224-32.800781c0 4.417969-3.582031 8-8 8h-152c-4.417969 0-8-3.582031-8-8v-8h168zm64 96c-10.472656.015625-19.742188-6.765625-22.890625-16.753906-3.148437-9.988282.550781-20.859375 9.136719-26.855469l1.777344-1.039063c1.777343-1.03125 3.679687-1.835937 5.65625-2.398437.128906-.042969.257812-.089844.390624-.121094 3.882813-1.054687 7.976563-1.054687 11.859376 0 .132812 0 .261718.078125.390624.121094 1.976563.5625 3.878907 1.367187 5.65625 2.398437l1.777344 1.039063c8.585938 5.996094 12.285156 16.867187 9.136719 26.855469-3.148437 9.988281-12.417969 16.769531-22.890625 16.753906zm0-64c-2.6875-.003906-5.367188.265625-8 .800781v-40.800781h16v40.800781c-2.632812-.535156-5.3125-.804687-8-.800781zm72-64c0 4.417969-3.582031 8-8 8h-432c-4.417969 0-8-3.582031-8-8v-80c0-13.253906 10.746094-24 24-24s24 10.746094 24 24v64c0 4.417969 3.582031 8 8 8s8-3.582031 8-8v-24h56v16h-16c-4.417969 0-8 3.582031-8 8s3.582031 8 8 8h208c4.417969 0 8-3.582031 8-8s-3.582031-8-8-8h-16v-16h88v24c0 4.417969 3.582031 8 8 8s8-3.582031 8-8v-112c0-13.253906 10.746094-24 24-24s24 10.746094 24 24zm0 0" data-original="#000000" class="active-path" data-old_color="#FFFFFF" fill="#008001"/><path d="m104 424c0 4.417969-3.582031 8-8 8s-8-3.582031-8-8 3.582031-8 8-8 8 3.582031 8 8zm0 0" data-original="#000000" class="active-path" data-old_color="#FFFFFF" fill="#008001"/><path d="m400 424c0 4.417969-3.582031 8-8 8s-8-3.582031-8-8 3.582031-8 8-8 8 3.582031 8 8zm0 0" data-original="#000000" class="active-path" data-old_color="#FFFFFF" fill="#008001"/><path d="m280 168h8v8c0 4.417969 3.582031 8 8 8s8-3.582031 8-8v-8h8c13.253906 0 24-10.746094 24-24v-48c0-13.253906-10.746094-24-24-24h-8v-24h64v128c0 4.417969 3.582031 8 8 8s8-3.582031 8-8v-136c0-4.417969-3.582031-8-8-8h-80c-4.417969 0-8-3.582031-8-8s3.582031-8 8-8h96c4.417969 0 8 3.582031 8 8v112c0 4.417969 3.582031 8 8 8s8-3.582031 8-8v-112c0-13.253906-10.746094-24-24-24h-96c-11.675781-.0234375-21.664062 8.378906-23.644531 19.886719-1.976563 11.507812 4.632812 22.761719 15.644531 26.640625v25.472656h-8c-13.253906 0-24 10.746094-24 24v48c0 13.253906 10.746094 24 24 24zm40-24c0 4.417969-3.582031 8-8 8h-32c-4.417969 0-8-3.582031-8-8v-16h48zm-48-48c0-4.417969 3.582031-8 8-8h32c4.417969 0 8 3.582031 8 8v16h-48zm0 0" data-original="#000000" class="active-path" data-old_color="#FFFFFF" fill="#008001"/><path d="m48 136h24v24c0 8.835938 7.164062 16 16 16h32c8.835938 0 16-7.164062 16-16v-24h24c8.835938 0 16-7.164062 16-16v-32c0-8.835938-7.164062-16-16-16h-24v-24c0-8.835938-7.164062-16-16-16h-32c-8.835938 0-16 7.164062-16 16v24h-24c-8.835938 0-16 7.164062-16 16v32c0 8.835938 7.164062 16 16 16zm0-48h32c4.417969 0 8-3.582031 8-8v-32h32v32c0 4.417969 3.582031 8 8 8h32v32h-32c-4.417969 0-8 3.582031-8 8v32h-32v-32c0-4.417969-3.582031-8-8-8h-32zm0 0" data-original="#000000" class="active-path" data-old_color="#FFFFFF" fill="#008001"/></g> </svg>
