<?xml version="1.0"?>
<svg xmlns="http://www.w3.org/2000/svg" xmlns:xlink="http://www.w3.org/1999/xlink" version="1.1" id="Capa_1" x="0px" y="0px" viewBox="0 0 498.608 498.608" style="enable-background:new 0 0 498.608 498.608;" xml:space="preserve" width="512px" height="512px" class=""><g><g>
	<g>
		<path d="M487.736,315.248c-5.792-20.256-22.208-35.408-42.856-39.528L400,266.744v-2.096c14.8-8.592,25.824-22.928,30.048-39.952    C444.808,221.848,456,208.88,456,193.304v-55.016c0-22.064-14.28-41.336-35.088-47.904c-11.648-15.76-30.032-25.08-49.752-25.08    c-15.608,0-30.304,3.952-43.16,10.896V33.304h-64v-32H64v32H0v464h328V396.616l40,40l59.72-59.72    c6.464-6.464,10.4-14.704,11.688-23.592h59.2L487.736,315.248z M416,209.304c0,26.472-21.528,48-48,48s-48-21.528-48-48v-32.536    c14.576-1.752,28.072-8.232,38.624-18.776l2.128-2.128l0.848,0.64c15.744,11.808,34.808,18.936,54.4,20.472V209.304z M432,207.08    v-27.544c4.76,2.776,8,7.88,8,13.776S436.76,204.304,432,207.08z M371.16,81.304c15.376,0,29.656,7.64,38.184,20.44l1.712,2.576    l3.008,0.752C429.336,108.888,440,122.544,440,138.288v27.464c-4.728-2.752-10.144-4.448-16-4.448    c-18.912,0-37.664-6.248-52.8-17.6l-11.952-8.968l-11.936,11.936c-9.44,9.44-21.976,14.632-35.312,14.632    c-5.856,0-11.272,1.696-16,4.448v-9.296C296,115.016,329.72,81.304,371.16,81.304z M304,179.528v27.552    c-4.76-2.776-8-7.88-8-13.776S299.24,182.304,304,179.528z M72,81.304h144v-16H80v-48h168v48h-16v16h24h8h16v16h16v-32h-32v-16h48    V87.24c-19.552,16.728-32,41.528-32,69.216v36.848c0,15.576,11.192,28.544,25.952,31.392c4.224,17.024,15.248,31.36,30.048,39.952    v2.096l-40,8v-33.44h-16v38c-15.272,6.552-27.04,19.504-31.736,35.944l-10.872,38.056H280v96H48v-368h16H72z M312,481.304H16v-432    h48v16H32v400h264v-112h0.592c1.288,8.888,5.224,17.128,11.688,23.592l3.72,3.72V481.304z M416.408,365.584L368,413.992    l-48.408-48.408c-4.896-4.896-7.592-11.416-7.592-18.344c0-14.304,11.632-25.936,25.936-25.936c6.928,0,13.448,2.696,18.344,7.592    l11.72,11.72l11.72-11.72c4.896-4.896,11.416-7.592,18.344-7.592c14.304,0,25.936,11.632,25.936,25.936    C424,354.168,421.304,360.688,416.408,365.584z M438.68,337.304c-4.488-18.32-20.936-32-40.616-32    c-11.2,0-21.736,4.36-29.656,12.28L368,317.992l-0.408-0.408c-7.92-7.92-18.448-12.28-29.656-12.28    c-19.688,0-36.128,13.68-40.616,32h-38.712l5.048-17.664c4.136-14.464,15.856-25.28,30.608-28.232L352,279.864v-8.672    c5.128,1.336,10.464,2.112,16,2.112s10.872-0.776,16-2.104v8.672l57.736,11.536c14.752,2.952,26.48,13.776,30.608,28.232    l5.048,17.664H438.68z" data-original="#000000" class="active-path" data-old_color="#000000" fill="#008001"/>
	</g>
</g><g>
	<g>
		<path d="M144,121.304v-24H96v24H72v48h24v24h48v-24h24v-48H144z M152,153.304h-24v24h-16v-24H88v-16h24v-24h16v24h24V153.304z" data-original="#000000" class="active-path" data-old_color="#000000" fill="#008001"/>
	</g>
</g><g>
	<g>
		<rect x="192" y="121.304" width="64" height="16" data-original="#000000" class="active-path" data-old_color="#000000" fill="#008001"/>
	</g>
</g><g>
	<g>
		<rect x="192" y="153.304" width="64" height="16" data-original="#000000" class="active-path" data-old_color="#000000" fill="#008001"/>
	</g>
</g><g>
	<g>
		<polygon points="136,233.304 88,233.304 80,233.304 80,249.304 88,249.304 136,249.304 144,249.304 144,233.304   " data-original="#000000" class="active-path" data-old_color="#000000" fill="#008001"/>
	</g>
</g><g>
	<g>
		<polygon points="136,265.304 88,265.304 80,265.304 80,281.304 88,281.304 136,281.304 144,281.304 144,265.304   " data-original="#000000" class="active-path" data-old_color="#000000" fill="#008001"/>
	</g>
</g><g>
	<g>
		<rect x="176" y="233.304" width="48" height="16" data-original="#000000" class="active-path" data-old_color="#000000" fill="#008001"/>
	</g>
</g><g>
	<g>
		<rect x="176" y="265.304" width="48" height="16" data-original="#000000" class="active-path" data-old_color="#000000" fill="#008001"/>
	</g>
</g><g>
	<g>
		<polygon points="136,361.304 88,361.304 80,361.304 80,377.304 88,377.304 136,377.304 144,377.304 144,361.304   " data-original="#000000" class="active-path" data-old_color="#000000" fill="#008001"/>
	</g>
</g><g>
	<g>
		<rect x="176" y="361.304" width="48" height="16" data-original="#000000" class="active-path" data-old_color="#000000" fill="#008001"/>
	</g>
</g><g>
	<g>
		<rect x="80" y="297.304" width="144" height="16" data-original="#000000" class="active-path" data-old_color="#000000" fill="#008001"/>
	</g>
</g><g>
	<g>
		<rect x="80" y="329.304" width="144" height="16" data-original="#000000" class="active-path" data-old_color="#000000" fill="#008001"/>
	</g>
</g><g>
	<g>
		<rect x="80" y="393.304" width="144" height="16" data-original="#000000" class="active-path" data-old_color="#000000" fill="#008001"/>
	</g>
</g><g>
	<g>
		<rect x="200" y="33.304" width="16" height="16" data-original="#000000" class="active-path" data-old_color="#000000" fill="#008001"/>
	</g>
</g><g>
	<g>
		<rect x="112" y="33.304" width="16" height="16" data-original="#000000" class="active-path" data-old_color="#000000" fill="#008001"/>
	</g>
</g></g> </svg>
