<?xml version="1.0"?>
<svg xmlns="http://www.w3.org/2000/svg" height="512px" viewBox="0 -19 462 462" width="512px"><g><path d="m455 248.882812c-3.867188 0-7 3.132813-7 7v23.117188h-434v-102.808594c0-3.867187-3.132812-7-7-7s-7 3.132813-7 7v241.183594c0 3.867188 3.132812 7 7 7s7-3.132812 7-7v-56.375h434v56.375c0 3.867188 3.132812 7 7 7s7-3.132812 7-7v-161.492188c0-3.867187-3.132812-7-7-7zm0 0" data-original="#000000" class="active-path" data-old_color="#000000" fill="#008001"/><path d="m52.882812 270h19.980469c19.914063-.046875 36.054688-16.160156 36.136719-36.074219v-4.347656c0-19.851563-16.285156-35.578125-36.136719-35.578125h-19.980469c-7.367187-.082031-14.460937 2.785156-19.699218 7.964844-5.238282 5.183594-8.183594 12.246094-8.183594 19.613281v20.347656c-.039062 15.449219 12.4375 28.011719 27.882812 28.074219zm0 0" data-original="#000000" class="active-path" data-old_color="#000000" fill="#008001"/><path d="m131.882812 194c-1.796874-.089844-3.554687.5625-4.855468 1.804688-1.304688 1.246093-2.035156 2.972656-2.027344 4.773437v62.347656c-.027344 1.851563.679688 3.640625 1.972656 4.96875 1.292969 1.324219 3.058594 2.082031 4.910156 2.105469h284.980469c3.90625-.023438 7.078125-3.167969 7.136719-7.074219v-6.347656c0-34.738281-28.398438-62.578125-63.136719-62.578125zm0 0" data-original="#000000" class="active-path" data-old_color="#000000" fill="#008001"/><path d="m118.398438 90.253906-.011719 19.113282h7.320312l.015625-19.246094c-.007812-3.890625 3.109375-7.066406 7-7.125l19.117188.144531v-7.253906l-19.117188.015625c-1.855468.003906-3.636718-.730469-4.949218-2.042969-1.308594-1.3125-2.046876-3.089844-2.046876-4.945313l.015626-19.109374h-7.320313l-.015625 19.121093c.003906 3.878907-3.121094 7.035157-7 7.070313l-19.117188-.050782-.007812 7.300782 19.117188.003906c1.859374 0 3.640624.738281 4.953124 2.050781 1.316407 1.3125 2.050782 3.097657 2.046876 4.953125zm0 0" data-original="#000000" class="active-path" data-old_color="#000000" fill="#008001"/><path d="m122.007812 160h.058594c44.066406 0 79.9375-36.054688 79.96875-80.128906.011719-21.191406-8.40625-41.519532-23.394531-56.5-14.988281-14.984375-35.320313-23.3906252-56.511719-23.371094h-.066406c-44.179688-.015625-80.011719 35.789062-80.027344 79.972656s35.789063 80.011719 79.972656 80.027344zm-43.707031-91.105469c.003907-1.847656.746094-3.613281 2.0625-4.90625 1.3125-1.296875 3.089844-2.011719 4.9375-1.988281h.003907l19.117187-.03125.015625-19.144531c.003906-1.828125.742188-3.582031 2.054688-4.863281 1.320312-1.285157 3.097656-1.992188 4.941406-1.960938l21.324218-.078125c1.851563-.011719 3.632813.714844 4.945313 2.019531 1.3125 1.308594 2.050781 3.082032 2.054687 4.9375l-.015624 19.089844h19.117187c1.855469 0 3.636719.734375 4.949219 2.050781 1.316406 1.3125 2.050781 3.09375 2.050781 4.949219l-.019531 21.179688c-.007813 1.839843-.75 3.601562-2.066406 4.890624-1.316407 1.285157-3.09375 1.992188-4.933594 1.960938h-.003906l-19.117188.128906-.015625 19.1875c-.003906 1.808594-.742187 3.539063-2.050781 4.792969-1.332032 1.265625-3.117188 1.949219-4.953125 1.890625h-.003907l-21.320312.171875c-1.847656.023437-3.625-.695313-4.941406-1.992187-1.316406-1.300782-2.054688-3.070313-2.058594-4.917969l.015625-19.070313-19.117187.007813c-1.855469.003906-3.636719-.734375-4.949219-2.042969-1.3125-1.3125-2.046875-3.09375-2.046875-4.949219zm0 0" data-original="#000000" class="active-path" data-old_color="#000000" fill="#008001"/></g> </svg>
