<?xml version="1.0"?>
<svg xmlns="http://www.w3.org/2000/svg" viewBox="0 0 64 64" width="512px" height="512px"><g><g id="solid"><rect x="31" y="26" width="15" height="3" data-original="#000000" class="active-path" data-old_color="#000000" fill="#008001"/><path d="M46,36H42.974A4.948,4.948,0,0,1,44,39h2Z" data-original="#000000" class="active-path" data-old_color="#000000" fill="#008001"/><rect x="44" y="41" width="2" height="3" data-original="#000000" class="active-path" data-old_color="#000000" fill="#008001"/><rect x="44" y="46" width="2" height="3" data-original="#000000" class="active-path" data-old_color="#000000" fill="#008001"/><path d="M37,11V8H35v3a1,1,0,0,1-1,1H31v2h3a1,1,0,0,1,1,1v3h2V15a1,1,0,0,1,1-1h3V12H38A1,1,0,0,1,37,11Z" data-original="#000000" class="active-path" data-old_color="#000000" fill="#008001"/><path d="M7,60H39a3,3,0,0,0,3-3V39a3,3,0,0,0-3-3H7a3,3,0,0,0-3,3V57A3,3,0,0,0,7,60Zm4-6H7V52h4Zm0-4H7V48h4Zm29,3v4a1,1,0,0,1-1,1H32a1,1,0,0,1-1-1V53a1,1,0,0,1,1-1h7A1,1,0,0,1,40,53Zm-9-3V48h4v2Zm6-11h2v2H37Zm-4,0h2v2H33Zm-4,0h2v2H29Zm-4,0h2v2H25Zm0,9h4v2H25Zm0,4h4v2H25Zm-6-4h4v2H19Zm-2,2H13V48h4ZM6,39a1,1,0,0,1,1-1h6a1,1,0,0,1,1,1v6a1,1,0,0,1-1,1H7a1,1,0,0,1-1-1Z" data-original="#000000" class="active-path" data-old_color="#000000" fill="#008001"/><rect x="33" y="54" width="5" height="2" data-original="#000000" class="active-path" data-old_color="#000000" fill="#008001"/><rect x="8" y="40" width="4" height="4" data-original="#000000" class="active-path" data-old_color="#000000" fill="#008001"/><polygon points="31 34 39 34 46 34 46 31 31 31 31 34" data-original="#000000" class="active-path" data-old_color="#000000" fill="#008001"/><rect x="48" y="26" width="7" height="3" data-original="#000000" class="active-path" data-old_color="#000000" fill="#008001"/><rect x="48" y="36" width="7" height="3" data-original="#000000" class="active-path" data-old_color="#000000" fill="#008001"/><rect x="48" y="46" width="7" height="3" data-original="#000000" class="active-path" data-old_color="#000000" fill="#008001"/><polygon points="52 12 58.586 12 52 5.414 52 12" data-original="#000000" class="active-path" data-old_color="#000000" fill="#008001"/><rect x="48" y="31" width="7" height="3" data-original="#000000" class="active-path" data-old_color="#000000" fill="#008001"/><rect x="48" y="41" width="7" height="3" data-original="#000000" class="active-path" data-old_color="#000000" fill="#008001"/><path d="M50,13V4H26V34h3V25a1,1,0,0,1,1-1H56a1,1,0,0,1,1,1V50a1,1,0,0,1-1,1H44v3H60V14H51A1,1,0,0,1,50,13Zm-5-1h3v2H45Zm-2,3a1,1,0,0,1-1,1H39v3a1,1,0,0,1-1,1H34a1,1,0,0,1-1-1V16H30a1,1,0,0,1-1-1V11a1,1,0,0,1,1-1h3V7a1,1,0,0,1,1-1h4a1,1,0,0,1,1,1v3h3a1,1,0,0,1,1,1Zm13,7H45V20H56Zm0-4H45V16H56Z" data-original="#000000" class="active-path" data-old_color="#000000" fill="#008001"/></g></g> </svg>
