<?xml version="1.0"?>
<svg xmlns="http://www.w3.org/2000/svg" xmlns:xlink="http://www.w3.org/1999/xlink" version="1.1" id="Capa_1" x="0px" y="0px" viewBox="0 0 512 512" style="enable-background:new 0 0 512 512;" xml:space="preserve" width="512px" height="512px" class=""><g><g>
	<g>
		<path d="M239.147,36.5c4.142,0,7.5-3.357,7.5-7.5V12.5c0-6.893-5.607-12.5-12.5-12.5H71.172c-6.893,0-12.5,5.607-12.5,12.5v63.815    c0,6.893,5.607,12.5,12.5,12.5h58.472c0.813,0.015,2.667,0.781,3.249,1.342l12.021,11.984c2.436,2.429,5.635,3.643,8.835,3.643    s6.4-1.215,8.836-3.643l12.017-11.982c0.585-0.563,2.439-1.329,3.248-1.344h56.297c6.893,0,12.5-5.607,12.5-12.5V62    c0-4.143-3.358-7.5-7.5-7.5c-4.142,0-7.5,3.357-7.5,7.5v11.815H177.85c-4.769,0-10.458,2.352-13.836,5.719L153.749,89.77    l-10.266-10.235c-3.378-3.367-9.067-5.719-13.836-5.719H73.672V15h157.975v14C231.647,33.143,235.005,36.5,239.147,36.5z" data-original="#000000" class="active-path" data-old_color="#000000" fill="#008001"/>
	</g>
</g><g>
	<g>
		<path d="M152.611,241.34c-4.142,0-7.5,3.357-7.5,7.5v13.77h-2.658c-4.142,0-7.5,3.357-7.5,7.5s3.358,7.5,7.5,7.5h5.158    c6.893,0,12.5-5.608,12.5-12.5v-16.27C160.111,244.697,156.753,241.34,152.611,241.34z" data-original="#000000" class="active-path" data-old_color="#000000" fill="#008001"/>
	</g>
</g><g>
	<g>
		<path d="M189.304,231.741c-4.142,0-7.5,3.357-7.5,7.5v14.6c0,4.142,3.358,7.5,7.5,7.5c4.142,0,7.5-3.357,7.5-7.5v-14.6    C196.804,235.098,193.446,231.741,189.304,231.741z" data-original="#000000" class="active-path" data-old_color="#000000" fill="#008001"/>
	</g>
</g><g>
	<g>
		<path d="M105.762,231.741c-4.142,0-7.5,3.357-7.5,7.5v14.6c0,4.142,3.358,7.5,7.5,7.5c4.142,0,7.5-3.357,7.5-7.5v-14.6    C113.262,235.098,109.904,231.741,105.762,231.741z" data-original="#000000" class="active-path" data-old_color="#000000" fill="#008001"/>
	</g>
</g><g>
	<g>
		<path d="M169.779,286.183h-46.1c-6.49,0-11.77,5.273-11.77,11.755c0,19.154,15.62,34.738,34.82,34.738    c19.199,0,34.819-15.584,34.819-34.738C181.548,291.457,176.269,286.183,169.779,286.183z M146.728,317.676    c-9.819,0-17.993-7.148-19.552-16.493h39.104C164.721,310.529,156.548,317.676,146.728,317.676z" data-original="#000000" class="active-path" data-old_color="#000000" fill="#008001"/>
	</g>
</g><g>
	<g>
		<path d="M430.765,351.085h-5.003c10.593-9.495,19.033-21.661,24.286-35.409c15.202-0.074,27.548-12.454,27.548-27.665    c0-9.045-4.37-17.083-11.104-22.135c4.298-4.101,6.984-9.876,6.984-16.271v-4.282c0-8.688-4.954-16.238-12.183-19.985    c-5.48-35.392-27.234-64.563-56.232-77.346c3.368-6.232,5.311-13.492,5.311-21.247c0-6.271-5.101-11.371-11.37-11.371h-53.61    c-6.27,0-11.371,5.101-11.371,11.371c0,7.755,1.943,15.016,5.31,21.247c-28.998,12.782-50.752,41.954-56.232,77.347    c-7.228,3.747-12.182,11.296-12.182,19.984v4.282c0,6.394,2.686,12.17,6.983,16.27c-6.733,5.052-11.103,13.09-11.103,22.136    c0,15.213,12.345,27.595,27.546,27.666c5.296,13.861,13.833,26.117,24.55,35.646c-24.961,2.426-44.538,23.514-44.538,49.091    v14.139c-4.755-3.671-9.126-8.074-13.08-13.24c-4.283-5.595-7.509-11.289-9.858-16.169c-3.694-24.819-24.912-43.999-50.661-44.608    l-2.997-5.582c14.888-11.245,26.058-27.232,31.289-45.721h7.111c11.345,0,20.575-9.213,20.575-20.537v-28.247    c0-11.323-9.23-20.536-20.575-20.536h-3.826V126.01c0-8.358-6.77-15.159-15.092-15.159H147.65    c-12.607,0-23.841,6.006-31.054,15.319H99.57c-21.714,0-39.38,17.796-39.38,39.671v54.071h-3.825    c-11.346,0-20.576,9.213-20.576,20.536v28.247c0,11.324,9.23,20.537,20.576,20.537h7.11c4.597,16.246,13.783,30.558,26.044,41.421    c-1.32,1.171-2.443,2.526-3.244,4.018l-3.149,5.864c-28.365,0.672-51.237,23.879-51.237,52.33v106.418    C31.889,506.295,37.6,512,44.62,512h194.639c7.021,0,12.732-5.705,12.732-12.717v-31.826c7.083,4.218,14.546,7.639,22.363,10.272    v21.906c0,6.817,5.547,12.364,12.366,12.364h181.027c6.818,0,12.365-5.547,12.365-12.364v-99.222    C480.114,373.214,457.976,351.085,430.765,351.085z M232.333,265.449v-30.537h3.826c3.074,0,5.575,2.483,5.575,5.536v28.247    c0,3.053-2.501,5.537-5.575,5.537h-4.265C232.184,271.344,232.333,268.414,232.333,265.449z M56.365,274.232    c-3.075,0-5.576-2.484-5.576-5.537v-28.247c0-3.053,2.501-5.536,5.576-5.536h3.825v30.537c0,2.965,0.149,5.895,0.439,8.783H56.365    z M200.443,371.656l-16.306,7.58c-3.811,1.772-6.131,5.056-6.208,8.781c-0.077,3.726,2.107,7.101,5.84,9.027l8.405,4.34    l-23.119,32.185v-68.186v-16.235c5.565-1.543,10.907-3.634,15.963-6.216L200.443,371.656z M192.24,427.003v3.663    c-1.239,0.363-2.44,0.815-3.597,1.346L192.24,427.003z M75.191,165.841c0-13.604,10.937-24.671,24.38-24.671h9.816    c-0.723,3.001-1.116,6.131-1.116,9.353v6.886c-8.209,2.23-15.419,5.288-21.572,9.173c-4.375,2.763-8.211,5.915-11.508,9.446    V165.841z M75.191,265.449v-47.198c0-17.941,6.384-30.693,19.518-38.987c11.901-7.516,29.246-11.326,51.554-11.326    c6.333,0,12.357,0.315,17.905,0.936c4.116,0.468,7.827-2.501,8.288-6.618c0.461-4.116-2.502-7.827-6.618-8.288    c-6.1-0.684-12.687-1.03-19.575-1.03c-8.223,0-15.886,0.498-22.992,1.473v-3.888c0-13.605,10.937-24.672,24.38-24.672h69.602    c0.001,0,0.081,0.034,0.081,0.159v50.062c-2.961-3.176-6.337-6.061-10.167-8.617c-3.446-2.3-8.102-1.371-10.402,2.073    c-2.3,3.445-1.372,8.102,2.074,10.401c12.445,8.309,18.495,20.844,18.495,38.322v47.198c0,39.587-31.882,71.794-71.07,71.794    C107.073,337.243,75.191,305.036,75.191,265.449z M99.422,341.893c0.187-0.191,0.607-0.441,0.863-0.513h4.322    c3.282,1.838,6.693,3.471,10.219,4.87v1.753h0.001v17.381v68.188l-23.119-32.186l8.403-4.34c3.734-1.927,5.917-5.302,5.841-9.027    c-0.076-3.726-2.397-7.009-6.211-8.782l-16.303-7.578L99.422,341.893z M95.487,471.86c0,3.887-3.182,7.049-7.094,7.049    c-3.911,0-7.093-3.162-7.093-7.049s3.182-7.05,7.093-7.05C92.305,464.81,95.487,467.972,95.487,471.86z M114.828,497L114.828,497    H46.89V392.865c0-17.139,11.644-31.609,27.462-35.99l-5.556,10.347c-1.583,2.947-1.89,6.443-0.841,9.591    c1.05,3.15,3.395,5.768,6.432,7.178l9.638,4.48l-2.527,1.305c-3.091,1.594-5.317,4.397-6.109,7.689    c-0.791,3.291-0.082,6.797,1.945,9.618l3.559,4.955v39.083c-8.501,3.071-14.593,11.208-14.593,20.739    c0,12.158,9.911,22.049,22.093,22.049c12.183,0,22.094-9.891,22.094-22.049c0-9.531-6.092-17.668-14.594-20.739v-18.199    l18.468,25.711c0.148,0.205,0.31,0.394,0.467,0.587V497z M154.055,497h-24.227V372.884h24.227V497z M154.055,357.884h-24.227    v-7.235c5.322,1.043,10.816,1.595,16.435,1.595c2.627,0,5.225-0.126,7.792-0.359V357.884z M169.054,497v-37.782    c0.158-0.194,0.321-0.384,0.469-0.591l3.699-5.15c-0.09,0.89-0.137,1.793-0.137,2.707v30.234c0,4.143,3.358,7.5,7.5,7.5h6.784    c4.142,0,7.5-3.357,7.5-7.5c0-3.9-2.978-7.105-6.784-7.466v-22.768c0-6.395,5.228-11.598,11.654-11.598    c6.426,0,11.653,5.203,11.653,11.598v22.768c-3.806,0.36-6.783,3.565-6.783,7.466c0,4.143,3.358,7.5,7.5,7.5h6.783    c4.142,0,7.5-3.357,7.5-7.5v-30.234c0-12.067-8.098-22.276-19.153-25.519v-24.661c1.487-2.608,1.946-5.658,1.252-8.542    c-0.262-1.091-0.695-2.12-1.252-3.077v-9.348l2.252-1.047c3.038-1.411,5.382-4.026,6.433-7.176    c1.049-3.146,0.745-6.642-0.838-9.595l-5.556-10.346c15.817,4.381,27.461,18.852,27.461,35.99V497H169.054z M274.355,461.749    c-7.916-3.112-15.382-7.184-22.363-12.224v-35.826c6.609,7.904,14.075,14.219,22.363,18.93V461.749z M462.596,288.011    c0,5.361-3.358,9.945-8.079,11.791c1.006-5.401,1.541-10.958,1.541-16.62v-6.246C459.952,279.101,462.596,283.252,462.596,288.011    z M395.161,130.373c-0.558,4.765-2.205,9.129-4.63,12.763c-5.923-1.379-12.054-2.11-18.334-2.11    c-6.281,0-12.412,0.731-18.335,2.11c-2.426-3.633-4.073-7.998-4.63-12.763H395.161z M281.797,288.011    c0-4.76,2.643-8.911,6.536-11.076v6.247c0,5.662,0.535,11.22,1.541,16.622C285.154,297.958,281.797,293.373,281.797,288.011z     M293.416,257.104c-4.136,0-7.5-3.364-7.5-7.5v-4.282c0-4.136,3.364-7.5,7.5-7.5h92.586c4.142,0,7.5-3.357,7.5-7.5    s-3.358-7.5-7.5-7.5h-87.206c7.886-38.252,37.794-66.797,73.4-66.797c35.605,0,65.512,28.545,73.398,66.797h-19.592    c-4.142,0-7.5,3.357-7.5,7.5s3.358,7.5,7.5,7.5h24.974c4.136,0,7.5,3.364,7.5,7.5v4.282c0,4.136-3.364,7.5-7.5,7.5H293.416z     M303.333,283.182v-11.077h137.725v11.077c0,18.837-7.43,37.718-20.386,51.801c-13.201,14.351-30.417,22.254-48.476,22.254    c-18.06,0-35.276-7.903-48.478-22.254C310.763,320.899,303.333,302.019,303.333,283.182z M384.868,371.171l-12.672,24.908    l-12.672-24.908c4.143,0.7,8.376,1.065,12.672,1.065C376.492,372.236,380.725,371.871,384.868,371.171z M465.114,497H289.355    v-96.586c0-18.929,15.41-34.329,34.351-34.329h16.4l20.871,41.022c2.514,4.941,6.603,7.775,11.219,7.775    c4.616,0,8.705-2.834,11.219-7.776l20.87-41.021h26.479c18.94,0,34.35,15.4,34.35,34.329V497z" data-original="#000000" class="active-path" data-old_color="#000000" fill="#008001"/>
	</g>
</g><g>
	<g>
		<path d="M376.725,303.387h-1.667V291.65c0-4.143-3.358-7.5-7.5-7.5c-4.142,0-7.5,3.357-7.5,7.5v14.236    c0.001,6.893,5.421,12.501,12.084,12.501h4.583c4.142,0,7.5-3.357,7.5-7.5S380.867,303.387,376.725,303.387z" data-original="#000000" class="active-path" data-old_color="#000000" fill="#008001"/>
	</g>
</g><g>
	<g>
		<path d="M333.139,278.578c-4.142,0-7.5,3.357-7.5,7.5v10.863c0,4.143,3.358,7.5,7.5,7.5c4.142,0,7.5-3.357,7.5-7.5v-10.863    C340.639,281.935,337.281,278.578,333.139,278.578z" data-original="#000000" class="active-path" data-old_color="#000000" fill="#008001"/>
	</g>
</g><g>
	<g>
		<path d="M405.056,278.578c-4.142,0-7.5,3.357-7.5,7.5v10.863c0,4.143,3.358,7.5,7.5,7.5c4.142,0,7.5-3.357,7.5-7.5v-10.863    C412.556,281.935,409.198,278.578,405.056,278.578z" data-original="#000000" class="active-path" data-old_color="#000000" fill="#008001"/>
	</g>
</g><g>
	<g>
		<path d="M397.451,325.818c-2.929-2.931-7.677-2.932-10.607-0.003c-9.325,9.32-24.497,9.32-33.821,0.001    c-2.929-2.93-7.678-2.929-10.606,0.001c-2.931,2.929-2.93,7.678,0,10.606c7.586,7.584,17.549,11.375,27.515,11.375    c9.963,0,19.93-3.792,27.516-11.374C400.377,333.495,400.379,328.747,397.451,325.818z" data-original="#000000" class="active-path" data-old_color="#000000" fill="#008001"/>
	</g>
</g><g>
	<g>
		<path d="M448.605,424.845h-9.896v-9.876c0-5.701-4.639-10.339-10.342-10.339h-14.721c-5.704,0-10.344,4.638-10.344,10.339v9.876    h-9.894c-5.703,0-10.343,4.638-10.343,10.339v14.701c0,5.702,4.64,10.341,10.343,10.341h9.894v9.873    c0,5.701,4.64,10.34,10.344,10.34h14.721c5.703,0,10.342-4.639,10.342-10.34v-9.873h9.896c5.703,0,10.342-4.639,10.342-10.341    v-14.701C458.947,429.483,454.308,424.845,448.605,424.845z M443.947,445.226h-12.738c-4.142,0-7.5,3.357-7.5,7.5v12.713h-5.406    v-12.713c0-4.143-3.358-7.5-7.5-7.5h-12.737v-5.381h12.737c4.142,0,7.5-3.357,7.5-7.5V419.63h5.406v12.715    c0,4.143,3.358,7.5,7.5,7.5h12.738V445.226z" data-original="#000000" class="active-path" data-old_color="#000000" fill="#008001"/>
	</g>
</g><g>
	<g>
		<path d="M109.073,25.503H94.907c-4.142,0-7.5,3.358-7.5,7.5c0,4.143,3.358,7.5,7.5,7.5h14.166c4.142,0,7.5-3.357,7.5-7.5    C116.573,28.861,113.215,25.503,109.073,25.503z" data-original="#000000" class="active-path" data-old_color="#000000" fill="#008001"/>
	</g>
</g><g>
	<g>
		<path d="M208.232,25.503h-78.12c-4.142,0-7.5,3.358-7.5,7.5c0,4.143,3.358,7.5,7.5,7.5h78.119c4.143,0,7.501-3.357,7.501-7.5    C215.732,28.861,212.374,25.503,208.232,25.503z" data-original="#000000" class="active-path" data-old_color="#000000" fill="#008001"/>
	</g>
</g><g>
	<g>
		<path d="M173.026,48.317H94.907c-4.142,0-7.5,3.357-7.5,7.5s3.358,7.5,7.5,7.5h78.119c4.142,0,7.5-3.357,7.5-7.5    S177.168,48.317,173.026,48.317z" data-original="#000000" class="active-path" data-old_color="#000000" fill="#008001"/>
	</g>
</g></g> </svg>
