<?xml version="1.0"?>
<svg xmlns="http://www.w3.org/2000/svg" id="Outline" viewBox="0 0 64 64" width="512px" height="512px" class=""><g><path d="M49,48.173,40,45a3.006,3.006,0,0,1-2-2.829v-.464a27.25,27.25,0,0,0,11.636-4.918c2.33-1.822,1.661-8.716-2.16-22.285l2.453-6.131a1,1,0,0,0-.433-1.24C42.043,2.873,37.111,2,32,2s-10.043.873-17.5,5.132a1,1,0,0,0-.433,1.24L16.524,14.5c-3.821,13.569-4.49,20.463-2.159,22.286A27.252,27.252,0,0,0,26,41.706v.464A3.006,3.006,0,0,1,24,45l-8.993,3.174A9.013,9.013,0,0,0,9,56.66V62h2V56.66a7.011,7.011,0,0,1,4.671-6.6l5.782-2.041-2.285,3.427a1,1,0,0,0,.385,1.45l3.105,1.552-1.553,3.106a1,1,0,0,0,.608,1.405l10,3a1,1,0,0,0,.574,0l10-3a1,1,0,0,0,.545-1.513l-1.476-2.213L44.6,52.8a1,1,0,0,0,.232-1.355l-2.285-3.427,5.782,2.041A7.011,7.011,0,0,1,53,56.66V62h2V56.66A9.013,9.013,0,0,0,49,48.173ZM26.436,37.1C25.152,35.893,23,33.389,23,30.2V24.893c7.077-.9,11.1-3.74,12.8-5.272A15.744,15.744,0,0,0,41,24.6v5.6c0,5.264-6.036,9.8-9,9.8C30.816,40,28.568,39.092,26.436,37.1ZM32,4c4.619,0,9.1.77,15.746,4.442L44.5,16.548C40.51,14.477,34.257,14,32,14s-8.51.477-12.5,2.548L16.254,8.442C22.9,4.77,27.381,4,32,4ZM15.6,35.212c-.52-.406-1.79-2.887,2.156-17.635l.318.795a1,1,0,0,0,1.49.456C22.606,16.768,28.807,16,32,16s9.394.768,12.439,2.828a1,1,0,0,0,1.49-.456l.318-.795c3.946,14.747,2.676,17.229,2.157,17.634A25.5,25.5,0,0,1,38,39.676v-.314A12.967,12.967,0,0,0,42.8,32H43a4,4,0,0,0,0-8,1,1,0,0,0-.553-.895,14.022,14.022,0,0,1-5.553-5.554,1.007,1.007,0,0,0-.788-.543,1.019,1.019,0,0,0-.884.364c-.038.047-3.919,4.693-13.322,5.633a1,1,0,0,0-.9,1,4,4,0,0,0,0,8h.184a12.877,12.877,0,0,0,3.883,6.562c.3.282.616.548.933.8v.311A25.506,25.506,0,0,1,15.6,35.212ZM43,26a2,2,0,0,1,0,4ZM19,28a2,2,0,0,1,2-2v4A2,2,0,0,1,19,28Zm4.426,29.384L24.9,54.447a1,1,0,0,0-.448-1.342L21.46,51.612,23.935,47.9,30.579,59.53Zm8.574.6L25.45,46.522A5.007,5.007,0,0,0,28,42.17V40.718A8.623,8.623,0,0,0,32,42a8.777,8.777,0,0,0,4-1.293V42.17a5.007,5.007,0,0,0,2.55,4.352ZM39.4,54.2a1,1,0,0,0-.232,1.355l1.25,1.876-7,2.1L40.065,47.9l2.579,3.867Z" data-original="#000000" class="active-path" data-old_color="#000000" fill="#008001"/><path d="M35.627,35.779l-1.254-1.558a4.018,4.018,0,0,1-4.746,0l-1.254,1.558a5.974,5.974,0,0,0,7.254,0Z" data-original="#000000" class="active-path" data-old_color="#000000" fill="#008001"/><circle cx="27" cy="28" r="2" data-original="#000000" class="active-path" data-old_color="#000000" fill="#008001"/><circle cx="37" cy="28" r="2" data-original="#000000" class="active-path" data-old_color="#000000" fill="#008001"/><polygon points="31 12 33 12 33 10 35 10 35 8 33 8 33 6 31 6 31 8 29 8 29 10 31 10 31 12" data-original="#000000" class="active-path" data-old_color="#000000" fill="#008001"/></g> </svg>
