<?xml version="1.0"?>
<svg xmlns="http://www.w3.org/2000/svg" height="512px" viewBox="0 0 512 512" width="512px" class=""><g><path d="m15.03125 238.964844c0-4.140625 3.367188-7.511719 7.511719-7.511719s7.515625 3.371094 7.515625 7.511719v23.617187h15.03125v-23.617187c0-12.429688-10.117188-22.542969-22.546875-22.542969-12.429688 0-22.542969 10.113281-22.542969 22.542969v196.816406h15.03125zm0 0" data-original="#000000" class="active-path" data-old_color="#ffffff" fill="#ffffff"/><path d="m512 367.789062v-38.644531c0-12.433593-10.113281-22.546875-22.542969-22.546875-12.429687 0-22.546875 10.113282-22.546875 22.546875v7.511719h-28.554687v15.03125h28.554687v45.085938h-45.085937v-92.679688c0-15.195312-11.503907-27.554688-25.644531-27.554688h-154.109376c-14.144531 0-25.648437 12.359376-25.648437 27.554688v92.679688h-171.332031v-45.085938h154.800781v-15.03125h-29.691406c3.25-5.066406 5.144531-11.078125 5.144531-17.53125 0-17.957031-14.609375-32.566406-32.566406-32.566406h-50.097656c-17.953126 0-32.5625 14.609375-32.5625 32.566406 0 6.453125 1.894531 12.464844 5.144531 17.53125h-20.171875v-59.042969h-15.03125v219.355469h-15.027344v-46.160156h-15.03125v61.191406h45.089844v-60.117188h143.777344v-15.03125h-143.777344v-25.046874h421.820312v25.046874h-263.011718v15.03125h263.011718v60.117188h45.089844v-129.179688h-15.03125v114.148438h-15.027344v-167.824219c0-4.144531 3.371094-7.515625 7.515625-7.515625s7.511719 3.371094 7.511719 7.515625v38.644531zm-419.320312-66.199218h50.097656c9.667968 0 17.535156 7.867187 17.535156 17.535156s-7.867188 17.53125-17.535156 17.53125h-50.097656c-9.667969 0-17.53125-7.863281-17.53125-17.53125s7.863281-17.535156 17.53125-17.535156zm183.859374 95.183594h-45.085937v-92.679688c0-6.90625 4.761719-12.523438 10.617187-12.523438h34.46875zm70.136719 0h-55.105469v-105.203126h55.105469zm60.117188 0h-45.085938v-105.203126h34.472657c5.851562 0 10.613281 5.617188 10.613281 12.523438zm0 0" data-original="#000000" class="active-path" data-old_color="#ffffff" fill="#ffffff"/><path d="m364.210938 235.460938c64.917968 0 117.730468-52.8125 117.730468-117.730469 0-22.507813-6.375-44.390625-18.433594-63.277344l-12.667968 8.089844c10.515625 16.464843 16.070312 35.550781 16.070312 55.1875 0 56.628906-46.070312 102.699219-102.699218 102.699219-56.628907 0-102.699219-46.070313-102.699219-102.699219 0-56.628907 46.070312-102.699219 102.699219-102.699219 20.628906 0 40.523437 6.089844 57.527343 17.609375l8.429688-12.445313c-19.503907-13.210937-42.308594-20.195312-65.957031-20.195312-64.917969 0-117.730469 52.8125-117.730469 117.730469s52.8125 117.730469 117.730469 117.730469zm0 0" data-original="#000000" class="active-path" data-old_color="#ffffff" fill="#ffffff"/><path d="m442.527344 51.289062 11.457031-9.730468c-3.453125-4.0625-7.214844-7.929688-11.183594-11.488282l-10.035156 11.1875c3.464844 3.109376 6.746094 6.480469 9.761719 10.03125zm0 0" data-original="#000000" class="active-path" data-old_color="#ffffff" fill="#ffffff"/><path d="m396.773438 185.363281v-35.070312h35.070312v-65.125h-35.070312v-35.070313h-65.125v35.070313h-35.070313v65.125h35.070313v35.070312zm-85.164063-50.097656v-35.070313h35.066406v-35.066406h35.070313v35.066406h35.066406v35.070313h-35.066406v35.066406h-35.070313v-35.066406zm0 0" data-original="#000000" class="active-path" data-old_color="#ffffff" fill="#ffffff"/><path d="m70.636719 366.714844h15.03125v15.03125h-15.03125zm0 0" data-original="#000000" class="active-path" data-old_color="#ffffff" fill="#ffffff"/><path d="m130.753906 366.714844h40.078125v15.03125h-40.078125zm0 0" data-original="#000000" class="active-path" data-old_color="#ffffff" fill="#ffffff"/><path d="m100.695312 366.714844h15.03125v15.03125h-15.03125zm0 0" data-original="#000000" class="active-path" data-old_color="#ffffff" fill="#ffffff"/></g> </svg>
